<svg width="33" height="30" viewBox="0 0 33 30" fill="none" xmlns="http://www.w3.org/2000/svg">
<ellipse cx="15.2561" cy="5" rx="2.67109" ry="2.50415" fill="white"/>
<path fill-rule="evenodd" clip-rule="evenodd" d="M11.4297 12.5828C8.06891 13.5165 5.61719 16.4333 5.61719 19.887C5.61719 24.0938 9.25486 27.5041 13.7422 27.5041C16.8378 27.5041 19.529 25.8811 20.9006 23.4933L19.3294 21.9197C18.4606 24.0172 16.2866 25.5041 13.7422 25.5041C10.4331 25.5041 7.75052 22.9892 7.75052 19.887C7.75052 17.5532 9.2687 15.5518 11.4297 14.7035V12.5828Z" fill="white"/>
<rect x="12.9297" y="8.55896" width="4.625" height="11.4845" rx="2.3125" fill="white"/>
<rect x="12.9297" y="13.9496" width="9.5" height="2.10923" rx="1.05461" fill="white"/>
<path fill-rule="evenodd" clip-rule="evenodd" d="M14.4532 16.9965C13.6118 16.9965 12.9297 17.6786 12.9297 18.52C12.9297 19.3614 13.6118 20.0435 14.4532 20.0435H21.0707L24.2877 25.8366C24.7178 26.611 25.7118 26.9238 26.5079 26.5353C27.304 26.1467 27.6007 25.2039 27.1706 24.4295L23.6183 18.0326C23.5092 17.8362 23.3638 17.6694 23.1946 17.5363C22.9151 17.2061 22.4976 16.9965 22.0312 16.9965H14.4532Z" fill="white"/>
</svg>
