<svg width="40" height="40" viewBox="0 0 40 40" fill="none" xmlns="http://www.w3.org/2000/svg">
<g clip-path="url(#clip0_626_6312)">
<path d="M21.5546 39.5447L21.9991 39.5069L22.4821 39.4499L22.9974 39.3866L23.3709 39.3233L24.0149 39.2158L24.2596 39.1587C24.5043 39.1082 24.749 39.0576 24.9939 38.9944L25.1035 38.9627C27.5833 38.3277 29.9135 37.2233 31.9626 35.7117L32.0078 35.6738C32.2395 35.503 32.4779 35.326 32.7033 35.1362L33.1219 34.7821L33.4181 34.5291V34.5288C35.4241 32.7467 37.0394 30.5819 38.1656 28.1668C39.2919 25.7513 39.9052 23.1358 39.9681 20.4802C40.0106 20.1357 40.0106 19.7875 39.9681 19.443C39.9681 19.0762 39.9681 18.7029 39.9229 18.3423C39.8936 18.0638 39.6814 17.8374 39.4014 17.7857C38.7818 16.7304 37.7472 15.9725 36.5408 15.6902C35.3347 15.4078 34.0633 15.6261 33.0256 16.2933C31.9882 16.9606 31.2766 18.0181 31.0581 19.2171C30.8393 20.4158 31.1334 21.6501 31.8706 22.6296C32.6079 23.609 33.7232 24.2468 34.9544 24.3931C36.1856 24.5394 37.4236 24.1811 38.3773 23.4026C37.7212 26.8166 36.088 29.9761 33.6694 32.511L28.195 27.1407V27.141C29.7956 25.3874 30.7623 23.1639 30.9451 20.8157C30.9575 20.6415 30.896 20.4698 30.7752 20.3416C30.6544 20.2137 30.4851 20.1399 30.3074 20.1388C29.9537 20.1134 29.6458 20.3735 29.6182 20.7208C29.4601 22.7677 28.6231 24.7074 27.2352 26.2428L22.6495 21.7391C23.0141 21.2288 23.2139 20.6229 23.2228 19.9996C23.224 19.0537 22.7939 18.1571 22.0506 17.5554C21.3073 16.9539 20.3289 16.7105 19.3839 16.8924C18.4388 17.0739 17.6259 17.6619 17.1685 18.4943C16.7113 19.3268 16.6573 20.3165 17.0216 21.1921C17.3859 22.0678 18.13 22.7373 19.0501 23.0172C19.9701 23.297 20.9693 23.1575 21.7738 22.6374L26.3528 27.1345C24.3023 28.9065 21.5837 29.7429 18.8701 29.4371C16.1568 29.131 13.7019 27.7115 12.1133 25.5292C10.5248 23.3472 9.95086 20.6067 10.5337 17.9858C11.1168 15.365 12.8019 13.1094 15.1723 11.7765C15.2718 11.7147 15.352 11.6272 15.404 11.5235C16.8198 10.7848 18.3997 10.4025 20.0027 10.4104C22.7154 10.4132 25.3058 11.519 27.158 13.4655C27.4052 13.6925 27.7894 13.6931 28.0372 13.4663C28.2847 13.2399 28.3115 12.8635 28.0984 12.6051C25.5602 9.92641 21.8184 8.68397 18.1462 9.30038C14.4734 9.91681 11.3644 12.3091 9.87589 15.6638C8.38736 19.0185 8.72064 22.884 10.7614 25.9455C12.8025 29.0071 16.2767 30.8524 20.0026 30.8538C22.7064 30.8544 25.3149 29.872 27.3255 28.0961L32.7292 33.4094C32.4394 33.6686 32.1495 33.9281 31.8468 34.1684L31.3767 34.5352L31.1576 34.7061C29.4716 35.9409 27.5863 36.8883 25.58 37.5082H25.5415C25.2968 37.5841 25.0455 37.6536 24.7879 37.7168L24.6398 37.7547C24.4273 37.8117 24.2082 37.8558 23.9958 37.9066L23.7318 37.9636C23.5516 38.0015 23.3713 38.0269 23.1844 38.0585L22.8043 38.1218L22.3598 38.1788L21.8704 38.2421H21.4903C21.3034 38.2421 21.1231 38.2737 20.9365 38.2799C20.7496 38.2861 20.5694 38.2799 20.3891 38.2799H20.0027C15.9124 38.2551 11.9436 36.9123 8.70567 34.4579C5.46791 32.0035 3.13983 28.5728 2.07947 24.693C1.01881 20.8131 1.28416 16.6986 2.83511 12.9814C4.38598 9.26419 7.13647 6.14982 10.6638 4.11661L10.8507 4.00902C11.2434 3.79384 11.6428 3.58516 12.0551 3.37649L12.2291 3.30052H12.2288C13.0953 2.9162 13.9913 2.59881 14.9082 2.35173C18.7863 1.27418 22.9157 1.45772 26.6784 2.8747C30.4418 4.29193 33.6373 6.86644 35.7879 10.2142C35.9782 10.5096 36.3761 10.5971 36.6769 10.4105C36.9773 10.2236 37.0668 9.83273 36.8764 9.53737C34.5912 5.98052 31.2019 3.23945 27.209 1.71856C23.2162 0.197951 18.8313 -0.021447 14.702 1.09281L14.5861 1.13065V1.13093C13.5973 1.40625 12.631 1.75301 11.6942 2.16814L11.5073 2.25031C11.0694 2.45278 10.6379 2.67416 10.2192 2.88284L10.0197 2.99664V2.99692C6.20287 5.15035 3.2175 8.48245 1.52855 12.4748C-0.16063 16.4671 -0.459101 20.8958 0.679505 25.0719C1.8184 29.2481 4.3302 32.937 7.82499 35.5662C11.3196 38.1951 15.6007 39.616 20.003 39.6079H20.3958H21.0076C21.2075 39.6079 21.3685 39.5573 21.5551 39.5446L21.5546 39.5447ZM35.4594 23.1625C34.6213 23.1597 33.8171 22.8361 33.2182 22.2604C32.619 21.6849 32.272 20.9024 32.251 20.0792C32.23 19.2564 32.5365 18.4578 33.1054 17.8532C33.6742 17.2487 34.4608 16.8858 35.2978 16.8418C36.1348 16.7977 36.9562 17.0759 37.5876 17.6172C38.219 18.1585 38.6109 18.9201 38.6796 19.7407V19.9999V20.2024C38.6273 21.0055 38.265 21.7589 37.6666 22.309C37.0683 22.8591 36.2788 23.1643 35.4594 23.1626L35.4594 23.1625ZM18.0701 19.9999C18.0675 19.3676 18.3855 18.7757 18.9183 18.4211C19.4513 18.0667 20.129 17.9958 20.7259 18.2327C21.3225 18.4693 21.7602 18.9824 21.893 19.6012C22.0255 20.2196 21.8357 20.8625 21.3869 21.3155H21.3547C20.9936 21.6634 20.5082 21.8582 20.0025 21.8585C19.497 21.8585 19.0114 21.6639 18.65 21.3166C18.2886 20.969 18.0804 20.4963 18.0701 19.9999Z" fill="#DB1E35"/>
</g>
<defs>
<clipPath id="clip0_626_6312">
<rect width="40" height="40" fill="white"/>
</clipPath>
</defs>
</svg>
